#N canvas 770 61 839 575 10;
#X declare -path build;
#X obj -145 -84 declare -path build;
#X msg 27 -52 plugins;
#X obj -145 -52 osc~ 440;
#X msg -61 -52 parameters;
#X obj -207 56 *~ 0.3;
#X obj -207 123 dac~;
#X obj -145 123 print;
#X obj -81 99 vamp~ essentia:essentia_Centroid;
#X obj 92 182 vamp~;
#X connect 1 0 7 0;
#X connect 2 0 4 0;
#X connect 2 0 7 0;
#X connect 3 0 7 0;
#X connect 4 0 5 0;
#X connect 4 0 5 1;
#X connect 7 0 6 0;
