#N canvas 770 61 839 575 10;
#X declare -path build;
#X obj -145 -84 declare -path build;
#X obj -145 118 vamp~;
#X msg -67 -52 plugins;
#X obj -145 -52 osc~ 440;
#X obj -115 156 route plugin;
#X obj -115 185 print;
#X msg 388 45 print: bbc-vamp-plugins:bbc-intensity Intensity;
#X msg -5 -52 load bbc-vamp-plugins:bbc-intensity;
#X msg -5 45 parameters;
#X connect 1 1 4 0 32.................I.........PB.........HA....;
#X connect 2 0 1 0;
#X connect 3 0 1 0;
#X connect 4 0 5 0;
#X connect 7 0 1 0;
#X connect 8 0 1 0;
