#N canvas 770 61 839 575 10;
#X declare -path build;
#X obj -145 -84 declare -path build;
#X msg 27 -52 plugins;
#X msg -61 -52 parameters;
#X obj -207 56 *~ 0.3;
#X obj -207 123 dac~;
#X obj -61 56 vamp~ essentia:OnsetDetection_32;
#X msg 111 -52 vamp~ vamp-libxtract:f0;
#X obj 179 56 vamp~ vamp-libxtract:f0;
#X obj 179 85 nbx 11 25 -1e+37 1e+37 0 0 empty empty empty 0 -8 0 10 #e4e4e4 #373737 #373737 0 256;
#X obj -61 85 nbx 14 25 -1e+37 1e+37 0 0 empty empty empty 0 -8 0 10 #e4e4e4 #373737 #373737 0 256;
#X msg 296 -81 parameters;
#X obj 364 56 vamp~ vamp-libxtract:peak_spectrum;
#X obj 364 85 nbx 22 25 -1e+37 1e+37 0 0 empty empty empty 0 -8 0 10 #e4e4e4 #373737 #373737 0 256;
#X msg 441 -52 parameters;
#X obj 607 -81 adc~;
#X obj 664 -16 vu~;
#X obj 707 63 vu 20 120 empty empty -1 -8 0 10 #e4e4e4 #373737 1 0;
#X msg 386 -81 program;
#X obj 546 -26 *~ 4;
#X connect 1 0 5 0;
#X connect 2 0 5 0;
#X connect 3 0 4 0;
#X connect 3 0 4 1;
#X connect 5 0 9 0;
#X connect 7 0 8 0;
#X connect 10 0 7 0;
#X connect 11 0 12 0;
#X connect 13 0 11 0;
#X connect 14 0 15 0;
#X connect 14 0 18 0;
#X connect 15 0 16 0;
#X connect 17 0 7 0;
#X connect 17 0 11 0;
#X connect 17 0 5 0;
#X connect 18 0 11 0;
#X connect 18 0 7 0;
#X connect 18 0 5 0;
