#N canvas 963 23 951 1016 10;
#X obj 5 3 cnv 18 400 20 empty empty [vamp~]\ -\ by\ Charles\ K.\ Neimog 10 10 0 15 #e0e0e0 #404040 0;
#X text 2 29 [vamp~] This PureData object serves as a host for Vamp plugins \, enabling real-time audio analysis and feature extraction within PureData. It leverages the Real-time Vamp plugin SDK for C++20 \, which is designed for performance-critical applications.;
#X msg 187 181 plugins;
#X obj 24 299 r methods;
#X obj 187 286 s methods;
#X msg 196 209 parameters;
#X obj 5 98 cnv 8 290 14 empty empty WARNING!\ Not\ all\ vamp\ plugins\ are\ compatible!!! 4 7 0 10 #ffc7c6 #000000 0;
#X text 238 180 <= List all avaible plugins!;
#X obj 60 144 noise~;
#X text 266 206 <= List all parameters avaible for plugins!, f 21;
#X msg 50 224 set usel2 1;
#X obj 4 144 adc~;
#N canvas 963 550 951 489 READ-ABOUT 0;
#X obj 7 65 pdcontrol;
#X msg 7 9 browse https://github.com/lukasberbuer/rt-vamp-plugin-sdk?tab=readme-ov-file#plugin-restrictions;
#X connect 1 0 0 0;
#X restore 299 98 pd READ-ABOUT;
#X obj 4 323 vamp~ vamp-libxtract:amdf;
#X obj 4 416 list length;
#X obj 4 438 nbx 5 16 -1e+37 1e+37 0 0 empty empty empty 0 -9 0 10 #fcfcfc #000000 #000000 0 256;
#N canvas 0 50 450 250 (subpatch) 0;
#X array array 1024 float 2;
#X coords 0 1 1024 -1 219 89 1 0 0;
#X restore 222 383 graph;
#N canvas 963 550 951 489 plot 0;
#X obj 1 5 inlet;
#X obj 62 122 until;
#X obj 62 160 f;
#X obj 117 153 + 1;
#X obj 155 149 sel 0;
#X obj 117 179 mod 1024;
#X obj 1 27 t a a;
#X obj 2 213 list;
#X obj 62 75 list length;
#X obj 62 96 nbx 5 16 -1e+37 1e+37 0 0 empty empty empty 0 -9 0 10 #fcfcfc #000000 #000000 0 256;
#X obj 2 236 list split;
#X obj 62 182 t b f, f 6;
#X obj 30 303 tabwrite array;
#X obj 30 266 f;
#X connect 0 0 6 0;
#X connect 1 0 2 0;
#X connect 2 0 3 0;
#X connect 2 0 11 0;
#X connect 3 0 5 0;
#X connect 4 0 1 1;
#X connect 5 0 2 1;
#X connect 5 0 4 0;
#X connect 6 0 7 1;
#X connect 6 1 8 0;
#X connect 7 0 10 0;
#X connect 8 0 9 0;
#X connect 9 0 1 0;
#X connect 9 0 5 1;
#X connect 10 1 13 0;
#X connect 11 0 7 0;
#X connect 11 1 10 1;
#X connect 11 1 12 1;
#X connect 13 0 12 0;
#X restore 79 415 pd plot;
#X connect 2 0 4 0;
#X connect 3 0 13 0;
#X connect 5 0 4 0;
#X connect 10 0 13 0;
#X connect 11 0 13 0;
#X connect 13 0 14 0;
#X connect 13 0 17 0;
#X connect 14 0 15 0;
